<svg width="30" height="30" xmlns="http://www.w3.org/2000/svg" xmlns:xlink="http://www.w3.org/1999/xlink" xml:space="preserve" overflow="hidden"><defs><clipPath id="clip0"><rect x="34" y="581" width="30" height="30"/></clipPath></defs><g clip-path="url(#clip0)" transform="translate(-34 -581)"><path d="M57.75 584.75 40.25 584.75C38.8693 584.75 37.75 585.869 37.75 587.25L37.75 604.75C37.75 606.131 38.8693 607.25 40.25 607.25L49.776 607.25 49.776 598.549 46.847 598.549 46.847 595.143 49.776 595.143 49.776 592.637C49.776 589.732 51.552 588.148 54.145 588.148 55.019 588.145 55.891 588.191 56.76 588.279L56.76 591.317 54.975 591.317C53.562 591.317 53.288 591.984 53.288 592.969L53.288 595.138 56.663 595.138 56.224 598.544 53.268 598.544 53.268 607.25 57.751 607.25C59.1317 607.25 60.251 606.131 60.251 604.75L60.251 587.25C60.251 585.869 59.1317 584.75 57.751 584.75Z" fill="#FFFFFF"/></g></svg>