<svg width="30" height="30" xmlns="http://www.w3.org/2000/svg" xmlns:xlink="http://www.w3.org/1999/xlink" xml:space="preserve" overflow="hidden"><defs><clipPath id="clip0"><rect x="87" y="581" width="30" height="30"/></clipPath></defs><g clip-path="url(#clip0)" transform="translate(-87 -581)"><path d="M95.75 584.75C92.299 584.75 90.75 586.299 90.75 589.75L90.75 602.25C90.75 605.701 92.299 607.25 95.75 607.25L108.25 607.25C111.701 607.25 113.25 605.701 113.25 602.25L113.25 589.75C113.25 586.299 111.701 584.75 108.25 584.75L95.75 584.75ZM109.5 587.25C110.19 587.25 110.75 587.81 110.75 588.5 110.75 589.19 110.19 589.75 109.5 589.75 108.81 589.75 108.25 589.19 108.25 588.5 108.25 587.81 108.81 587.25 109.5 587.25ZM102 589.75C105.452 589.75 108.25 592.548 108.25 596 108.25 599.452 105.452 602.25 102 602.25 98.5482 602.25 95.75 599.452 95.75 596 95.75 592.548 98.5482 589.75 102 589.75ZM102 592.25C99.9289 592.25 98.25 593.929 98.25 596 98.25 598.071 99.9289 599.75 102 599.75 104.071 599.75 105.75 598.071 105.75 596 105.75 593.929 104.071 592.25 102 592.25Z" fill="#FFFFFF"/></g></svg>