<svg width="30" height="30" xmlns="http://www.w3.org/2000/svg" xmlns:xlink="http://www.w3.org/1999/xlink" xml:space="preserve" overflow="hidden"><defs><clipPath id="clip0"><rect x="192" y="585" width="30" height="30"/></clipPath></defs><g clip-path="url(#clip0)" transform="translate(-192 -585)"><path d="M215.75 588.75 198.25 588.75C196.869 588.75 195.75 589.869 195.75 591.25L195.75 608.75C195.75 610.131 196.869 611.25 198.25 611.25L215.75 611.25C217.131 611.25 218.25 610.131 218.25 608.75L218.25 591.25C218.25 589.869 217.131 588.75 215.75 588.75ZM203.25 606.25 200.096 606.25 200.096 597.5 203.25 597.5 203.25 606.25ZM201.618 595.896C200.654 595.896 200.011 595.254 200.011 594.396 200.011 593.538 200.654 592.896 201.725 592.896 202.689 592.896 203.332 593.539 203.332 594.396 203.332 595.253 202.689 595.896 201.618 595.896ZM214.5 606.25 211.448 606.25 211.448 601.468C211.448 600.145 210.634 599.84 210.329 599.84 210.024 599.84 209.006 600.044 209.006 601.468L209.006 606.25 205.852 606.25 205.852 597.5 209.006 597.5 209.006 598.721C209.412 598.008 210.226 597.5 211.752 597.5 213.278 597.5 214.499 598.721 214.499 601.468L214.499 606.25Z" fill="#FFFFFF"/></g></svg>