<svg width="30" height="30" xmlns="http://www.w3.org/2000/svg" xmlns:xlink="http://www.w3.org/1999/xlink" xml:space="preserve" overflow="hidden"><defs><clipPath id="clip0"><rect x="139" y="581" width="30" height="30"/></clipPath></defs><g clip-path="url(#clip0)" transform="translate(-139 -581)"><path d="M162.75 584.75 145.25 584.75C143.869 584.75 142.75 585.869 142.75 587.25L142.75 604.75C142.75 606.131 143.869 607.25 145.25 607.25L162.75 607.25C164.131 607.25 165.25 606.131 165.25 604.75L165.25 587.25C165.25 585.869 164.131 584.75 162.75 584.75ZM160.313 592.893 160.313 593.322C160.313 597.393 157.205 602.108 151.527 602.108 149.813 602.108 148.206 601.572 146.813 600.715L147.563 600.715C148.956 600.715 150.349 600.179 151.421 599.429 150.029 599.429 148.957 598.465 148.529 597.287 148.743 597.287 148.958 597.394 149.065 597.394 149.386 597.394 149.601 597.394 149.923 597.287 148.53 596.966 147.459 595.787 147.459 594.287 147.888 594.501 148.316 594.608 148.852 594.716 147.995 593.966 147.46 593.109 147.46 592.037 147.46 591.501 147.567 590.966 147.889 590.537 149.389 592.358 151.639 593.645 154.21 593.751 154.21 593.537 154.103 593.322 154.103 593.001 154.105 591.285 155.495 589.895 157.211 589.894 158.069 589.894 158.925 590.215 159.461 590.858 160.211 590.751 160.854 590.429 161.39 590.108 161.176 590.858 160.64 591.394 159.998 591.822 160.64 591.715 161.177 591.608 161.819 591.286 161.388 591.931 160.853 592.466 160.316 592.895Z" fill="#FFFFFF"/></g></svg>