<svg width="30" height="30" xmlns="http://www.w3.org/2000/svg" xmlns:xlink="http://www.w3.org/1999/xlink" xml:space="preserve" overflow="hidden"><defs><clipPath id="clip0"><rect x="244" y="585" width="30" height="30"/></clipPath></defs><g clip-path="url(#clip0)" transform="translate(-244 -585)"><path d="M267.501 588.75C269.019 588.751 270.249 589.981 270.25 591.499L270.25 608.501C270.249 610.019 269.019 611.249 267.501 611.25L250.499 611.25C248.981 611.249 247.751 610.019 247.75 608.501L247.75 591.499C247.751 589.981 248.981 588.751 250.499 588.75L267.501 588.75ZM266.58 596.468C266.397 595.785 265.864 595.252 265.181 595.069 263.947 594.739 259 594.739 259 594.739 259 594.739 254.053 594.739 252.819 595.07 252.136 595.253 251.603 595.786 251.42 596.469 251.089 597.703 251.089 600.277 251.089 600.277 251.089 600.277 251.089 602.851 251.42 604.085 251.603 604.768 252.136 605.301 252.819 605.484 254.053 605.814 259 605.814 259 605.814 259 605.814 263.947 605.814 265.181 605.484 265.864 605.301 266.397 604.768 266.58 604.085 266.911 602.851 266.911 600.277 266.911 600.277 266.911 600.277 266.911 597.703 266.58 596.469ZM257.418 602.649 257.418 597.903 261.528 600.276 257.418 602.649Z" fill="#FFFFFF" fill-rule="evenodd"/></g></svg>