<svg id="visual" viewBox="0 0 1980 550" width="1980" height="550" xmlns="http://www.w3.org/2000/svg" xmlns:xlink="http://www.w3.org/1999/xlink" version="1.1"><rect x="0" y="0" width="1980" height="550" fill="#68d6f9"></rect><path d="M0 383L198 378L396 395L594 369L792 389L990 366L1188 382L1386 328L1584 329L1782 401L1980 418L1980 551L1782 551L1584 551L1386 551L1188 551L990 551L792 551L594 551L396 551L198 551L0 551Z" fill="#00c9ff"></path><path d="M0 430L198 413L396 439L594 424L792 381L990 412L1188 438L1386 392L1584 450L1782 451L1980 399L1980 551L1782 551L1584 551L1386 551L1188 551L990 551L792 551L594 551L396 551L198 551L0 551Z" fill="#7cd2f5"></path><path d="M0 450L198 446L396 479L594 440L792 445L990 462L1188 486L1386 440L1584 439L1782 481L1980 420L1980 551L1782 551L1584 551L1386 551L1188 551L990 551L792 551L594 551L396 551L198 551L0 551Z" fill="#b2dced"></path><path d="M0 474L198 486L396 505L594 512L792 492L990 513L1188 467L1386 489L1584 513L1782 519L1980 516L1980 551L1782 551L1584 551L1386 551L1188 551L990 551L792 551L594 551L396 551L198 551L0 551Z" fill="#dfe4e6"></path></svg>