<svg id="visual" viewBox="0 0 1980 1080" width="1980" height="1080" xmlns="http://www.w3.org/2000/svg" xmlns:xlink="http://www.w3.org/1999/xlink" version="1.1"><rect x="0" y="0" width="1980" height="1080" fill="#68d6f9"></rect><path d="M0 743L198 740L396 683L594 726L792 736L990 663L1188 674L1386 641L1584 634L1782 735L1980 815L1980 1081L1782 1081L1584 1081L1386 1081L1188 1081L990 1081L792 1081L594 1081L396 1081L198 1081L0 1081Z" fill="#00c9ff"></path><path d="M0 759L198 759L396 733L594 847L792 862L990 829L1188 882L1386 745L1584 775L1782 763L1980 780L1980 1081L1782 1081L1584 1081L1386 1081L1188 1081L990 1081L792 1081L594 1081L396 1081L198 1081L0 1081Z" fill="#7cd2f5"></path><path d="M0 852L198 867L396 930L594 849L792 841L990 913L1188 915L1386 868L1584 935L1782 892L1980 920L1980 1081L1782 1081L1584 1081L1386 1081L1188 1081L990 1081L792 1081L594 1081L396 1081L198 1081L0 1081Z" fill="#b2dced"></path><path d="M0 979L198 973L396 1017L594 963L792 928L990 1015L1188 975L1386 931L1584 954L1782 1013L1980 972L1980 1081L1782 1081L1584 1081L1386 1081L1188 1081L990 1081L792 1081L594 1081L396 1081L198 1081L0 1081Z" fill="#dfe4e6"></path></svg>