<svg width="1797" height="1112" xmlns="http://www.w3.org/2000/svg" xmlns:xlink="http://www.w3.org/1999/xlink" xml:space="preserve" overflow="hidden"><defs><clipPath id="clip0"><rect x="736" y="401" width="1797" height="1112"/></clipPath><clipPath id="clip1"><rect x="737" y="401" width="1797" height="1104"/></clipPath><clipPath id="clip2"><rect x="737" y="401" width="1797" height="1104"/></clipPath><clipPath id="clip3"><rect x="737" y="401" width="1797" height="1104"/></clipPath></defs><g clip-path="url(#clip0)" transform="translate(-736 -401)"><g clip-path="url(#clip1)"><g clip-path="url(#clip2)"><g clip-path="url(#clip3)"><path d="M0 0 1796 0 1796 1010.25 0 1010.25Z" fill="#FFFFFF" transform="matrix(1 0 0 1.0928 737 401)"/><path d="M0 362.942 42.655 358.826C85.4971 354.897 170.807 346.665 256.304 348.91 341.801 351.155 427.111 363.503 512.608 367.245 598.105 370.986 683.415 366.122 769.287 362.38 854.971 358.639 941.029 356.02 1026.71 364.812 1112.58 373.605 1197.89 393.436 1283.39 407.468 1368.89 421.499 1454.2 429.73 1539.7 415.886 1625.19 402.229 1710.5 366.683 1753.35 348.91L1796 331.138 1796 0 1753.35 0C1710.5 0 1625.19 0 1539.7 0 1454.2 0 1368.89 0 1283.39 0 1197.89 0 1112.58 0 1026.71 0 941.029 0 854.971 0 769.287 0 683.415 0 598.105 0 512.608 0 427.111 0 341.801 0 256.304 0 170.807 0 85.4971 0 42.655 0L0 0Z" fill="#FFFFFF" transform="matrix(1 0 0 1.0928 737 401)"/><path d="M0 344.233 42.655 334.505C85.4971 324.964 170.807 305.507 256.304 293.16 341.801 280.625 427.111 275.013 512.608 282.87 598.105 290.54 683.415 311.868 769.287 312.803 854.971 313.739 941.029 294.282 1026.71 286.238 1112.58 278.193 1197.89 281.186 1283.39 303.449 1368.89 325.525 1454.2 366.683 1539.7 364.438 1625.19 362.38 1710.5 316.732 1753.35 294.095L1796 271.271 1796 0 1753.35 0C1710.5 0 1625.19 0 1539.7 0 1454.2 0 1368.89 0 1283.39 0 1197.89 0 1112.58 0 1026.71 0 941.029 0 854.971 0 769.287 0 683.415 0 598.105 0 512.608 0 427.111 0 341.801 0 256.304 0 170.807 0 85.4971 0 42.655 0L0 0Z" fill="#D5E5F8" transform="matrix(1 0 0 1.0928 737 401)"/><path d="M0 310.558 42.655 313.365C85.4971 316.171 170.807 321.783 256.304 316.171 341.801 310.558 427.111 293.721 512.608 276.883 598.105 260.046 683.415 243.208 769.287 245.079 854.971 246.95 941.029 267.529 1026.71 275.387 1112.58 283.057 1197.89 278.193 1283.39 283.431 1368.89 288.67 1454.2 304.385 1539.7 298.024 1625.19 291.85 1710.5 263.788 1753.35 249.756L1796 235.725 1796 0 1753.35 0C1710.5 0 1625.19 0 1539.7 0 1454.2 0 1368.89 0 1283.39 0 1197.89 0 1112.58 0 1026.71 0 941.029 0 854.971 0 769.287 0 683.415 0 598.105 0 512.608 0 427.111 0 341.801 0 256.304 0 170.807 0 85.4971 0 42.655 0L0 0Z" fill="#A9CBF1" transform="matrix(1 0 0 1.0928 737 401)"/><path d="M0 190.825 42.655 189.328C85.4971 187.645 170.807 184.651 256.304 173.052 341.801 161.453 427.111 141.622 512.608 143.119 598.105 144.615 683.415 167.814 769.287 174.923 854.971 182.032 941.029 173.426 1026.71 171.555 1112.58 169.685 1197.89 174.549 1283.39 173.613 1368.89 172.678 1454.2 165.943 1539.7 159.582 1625.19 153.408 1710.5 147.796 1753.35 144.99L1796 142.183 1796 0 1753.35 0C1710.5 0 1625.19 0 1539.7 0 1454.2 0 1368.89 0 1283.39 0 1197.89 0 1112.58 0 1026.71 0 941.029 0 854.971 0 769.287 0 683.415 0 598.105 0 512.608 0 427.111 0 341.801 0 256.304 0 170.807 0 85.4971 0 42.655 0L0 0Z" fill="#77B2E9" transform="matrix(1 0 0 1.0928 737 401)"/><path d="M0 67.35 42.655 65.105C85.4971 63.0471 170.807 58.5571 256.304 68.8467 341.801 79.1363 427.111 104.205 512.608 114.495 598.105 124.785 683.415 120.295 769.287 111.876 854.971 103.457 941.029 91.1096 1026.71 90.3613 1112.58 89.8 1197.89 101.025 1283.39 106.263 1368.89 111.689 1454.2 110.94 1539.7 108.134 1625.19 105.328 1710.5 100.464 1753.35 97.8446L1796 95.4125 1796 0 1753.35 0C1710.5 0 1625.19 0 1539.7 0 1454.2 0 1368.89 0 1283.39 0 1197.89 0 1112.58 0 1026.71 0 941.029 0 854.971 0 769.287 0 683.415 0 598.105 0 512.608 0 427.111 0 341.801 0 256.304 0 170.807 0 85.4971 0 42.655 0L0 0Z" fill="#2E99E1" transform="matrix(1 0 0 1.0928 737 401)"/></g></g></g><path d="M736 1366 2533 1366 2533 1513 736 1513Z" fill="#7F7F7F" fill-rule="evenodd"/><path d="M737 1029 905 1029 905 1366 737 1366Z" fill="#FFFFFF" fill-rule="evenodd"/><path d="M810 1133 866 1133 866 1136 810 1136Z" fill="#D2D2D2" fill-rule="evenodd"/><path d="M737 1060 866 1060 866 1063 737 1063Z" fill="#D2D2D2" fill-rule="evenodd"/><path d="M737 1072 866 1072 866 1075 737 1075Z" fill="#D2D2D2" fill-rule="evenodd"/><path d="M737 1084 866 1084 866 1087 737 1087Z" fill="#D2D2D2" fill-rule="evenodd"/><path d="M810 1096 866 1096 866 1099 810 1099Z" fill="#D2D2D2" fill-rule="evenodd"/><path d="M810 1109 866 1109 866 1112 810 1112Z" fill="#D2D2D2" fill-rule="evenodd"/><path d="M810 1121 866 1121 866 1124 810 1124Z" fill="#D2D2D2" fill-rule="evenodd"/><path d="M1253 1301 1413 1301 1413 1335 1253 1335Z" fill="#737373" fill-rule="evenodd"/><path d="M1410 1059 1242 1059 1242 1366 1257.28 1366 1257.28 1304.63 1339.07 1304.63 1339.07 1366 1354.34 1366 1354.34 1304.63 1366.72 1304.63 1366.72 1366 1382 1366 1382 1304.63 1410 1304.63Z" fill="#E6E6E6" fill-rule="evenodd"/><path d="M1242 1135 1326 1135 1326 1166 1242 1166Z" fill="#D2D2D2" fill-rule="evenodd"/><path d="M1242 1196 1326 1196 1326 1227 1242 1227Z" fill="#D2D2D2" fill-rule="evenodd"/><path d="M1242 1258 1326 1258 1326 1288 1242 1288Z" fill="#D2D2D2" fill-rule="evenodd"/><path d="M1279 1227 1382 1227 1382 1243 1279 1243Z" fill="#737373" fill-rule="evenodd"/><path d="M1279 1166 1382 1166 1382 1182 1279 1182Z" fill="#737373" fill-rule="evenodd"/><path d="M1307 1104 1410 1104 1410 1121 1307 1121Z" fill="#737373" fill-rule="evenodd"/><path d="M1747 998 1915 998 1915 1366 1747 1366Z" fill="#FFFFFF" fill-rule="evenodd"/><path d="M1768 1029 1829 1029 1829 1090 1768 1090Z" fill="#E6E6E6" fill-rule="evenodd"/><path d="M1833 1029 1859 1029 1859 1090 1833 1090Z" fill="#E6E6E6" fill-rule="evenodd"/><path d="M1863 1029 1889 1029 1889 1090 1863 1090Z" fill="#E6E6E6" fill-rule="evenodd"/><path d="M1768 1104 1830 1104 1830 1121 1768 1121Z" fill="#E6E6E6" fill-rule="evenodd"/><path d="M1833 1104 1859 1104 1859 1121 1833 1121Z" fill="#E6E6E6" fill-rule="evenodd"/><path d="M1863 1104 1889 1104 1889 1121 1863 1121Z" fill="#E6E6E6" fill-rule="evenodd"/><path d="M1768 1135 1829 1135 1829 1151 1768 1151Z" fill="#E6E6E6" fill-rule="evenodd"/><path d="M1833 1135 1859 1135 1859 1151 1833 1151Z" fill="#E6E6E6" fill-rule="evenodd"/><path d="M1863 1135 1889 1135 1889 1151 1863 1151Z" fill="#E6E6E6" fill-rule="evenodd"/><path d="M1803 1166 1830 1166 1830 1182 1803 1182Z" fill="#E6E6E6" fill-rule="evenodd"/><path d="M1833 1166 1859 1166 1859 1182 1833 1182Z" fill="#E6E6E6" fill-rule="evenodd"/><path d="M1768 1227 1829 1227 1829 1243 1768 1243Z" fill="#E6E6E6" fill-rule="evenodd"/><path d="M1833 1227 1859 1227 1859 1243 1833 1243Z" fill="#E6E6E6" fill-rule="evenodd"/><path d="M1803 1196 1830 1196 1830 1213 1803 1213Z" fill="#E6E6E6" fill-rule="evenodd"/><path d="M1833 1196 1859 1196 1859 1213 1833 1213Z" fill="#657689" fill-rule="evenodd"/><path d="M1863 1196 1889 1196 1889 1213 1863 1213Z" fill="#657689" fill-rule="evenodd"/><path d="M1833 1258 1859 1258 1859 1274 1833 1274Z" fill="#E6E6E6" fill-rule="evenodd"/><path d="M1803 1319 1829 1319 1829 1335 1803 1335Z" fill="#E6E6E6" fill-rule="evenodd"/><path d="M1768 1288 1830 1288 1830 1305 1768 1305Z" fill="#657689" fill-rule="evenodd"/><path d="M1833 1288 1859 1288 1859 1305 1833 1305Z" fill="#E6E6E6" fill-rule="evenodd"/><path d="M1863 1288 1889 1288 1889 1305 1863 1305Z" fill="#E6E6E6" fill-rule="evenodd"/><path d="M1833 1319 1859 1319 1859 1366 1833 1366Z" fill="#E6E6E6" fill-rule="evenodd"/><path d="M1410 1029 1564 1029 1564 1366 1410 1366Z" fill="#D2D2D2" fill-rule="evenodd"/><path d="M1410 1060 1539 1060 1539 1063 1410 1063Z" fill="#FFFFFF" fill-rule="evenodd"/><path d="M1410 1072 1539 1072 1539 1075 1410 1075Z" fill="#FFFFFF" fill-rule="evenodd"/><path d="M1410 1084 1539 1084 1539 1087 1410 1087Z" fill="#FFFFFF" fill-rule="evenodd"/><path d="M1483 1096 1539 1096 1539 1099 1483 1099Z" fill="#FFFFFF" fill-rule="evenodd"/><path d="M1483 1109 1539 1109 1539 1112 1483 1112Z" fill="#FFFFFF" fill-rule="evenodd"/><path d="M1483 1121 1539 1121 1539 1124 1483 1124Z" fill="#FFFFFF" fill-rule="evenodd"/><path d="M1483 1133 1539 1133 1539 1136 1483 1136Z" fill="#FFFFFF" fill-rule="evenodd"/><path d="M1578.5 1090 1578.5 1120.67 1563.42 1120.67 1563.42 1182 1466.17 1182 1466.17 1243.33 1410 1243.5 1410 1365.93 1747 1366 1747 1090Z" fill="#E6E6E6" fill-rule="evenodd"/><path d="M1506 1274 1532 1274 1532 1305 1506 1305Z" fill="#737373" fill-rule="evenodd"/><path d="M1506 1305 1532 1305 1532 1335 1506 1335Z" fill="#D2D2D2" fill-rule="evenodd"/><path d="M1466 1274 1494 1274 1494 1305 1466 1305Z" fill="#737373" fill-rule="evenodd"/><path d="M1466 1305 1494 1305 1494 1335 1466 1335Z" fill="#D2D2D2" fill-rule="evenodd"/><path d="M1683 1305 1710 1305 1710 1336 1683 1336Z" fill="#737373" fill-rule="evenodd"/><path d="M1683 1336 1710 1336 1710 1366 1683 1366Z" fill="#D2D2D2" fill-rule="evenodd"/><path d="M1646 1305 1672 1305 1672 1336 1646 1336Z" fill="#737373" fill-rule="evenodd"/><path d="M1646 1336 1672 1336 1672 1366 1646 1366Z" fill="#D2D2D2" fill-rule="evenodd"/><path d="M1579 1305 1635 1305 1635 1336 1579 1336Z" fill="#737373" fill-rule="evenodd"/><path d="M1579 1336 1635 1336 1635 1366 1579 1366Z" fill="#D2D2D2" fill-rule="evenodd"/><path d="M1579 1243 1710 1243 1710 1274 1579 1274Z" fill="#D2D2D2" fill-rule="evenodd"/><path d="M1579 1182 1710 1182 1710 1213 1579 1213Z" fill="#D2D2D2" fill-rule="evenodd"/><path d="M1579 1121 1710 1121 1710 1151 1579 1151Z" fill="#D2D2D2" fill-rule="evenodd"/><path d="M1579 1060 1710 1060 1710 1090 1579 1090Z" fill="#D2D2D2" fill-rule="evenodd"/><path d="M1523 1233 1654 1233 1654 1243 1523 1243Z" fill="#737373" fill-rule="evenodd"/><path d="M1523 1172 1654 1172 1654 1182 1523 1182Z" fill="#737373" fill-rule="evenodd"/><path d="M1073 998 1242 998 1242 1366 1073 1366Z" fill="#FFFFFF" fill-rule="evenodd"/><path d="M1094 1029 1156 1029 1156 1090 1094 1090Z" fill="#E6E6E6" fill-rule="evenodd"/><path d="M1159 1029 1186 1029 1186 1090 1159 1090Z" fill="#E6E6E6" fill-rule="evenodd"/><path d="M1189 1029 1216 1029 1216 1090 1189 1090Z" fill="#E6E6E6" fill-rule="evenodd"/><path d="M1094 1104 1156 1104 1156 1121 1094 1121Z" fill="#E6E6E6" fill-rule="evenodd"/><path d="M1159 1104 1186 1104 1186 1121 1159 1121Z" fill="#E6E6E6" fill-rule="evenodd"/><path d="M1189 1104 1216 1104 1216 1121 1189 1121Z" fill="#E6E6E6" fill-rule="evenodd"/><path d="M1094 1135 1156 1135 1156 1151 1094 1151Z" fill="#657689" fill-rule="evenodd"/><path d="M1159 1135 1185 1135 1185 1151 1159 1151Z" fill="#657689" fill-rule="evenodd"/><path d="M1189 1135 1216 1135 1216 1151 1189 1151Z" fill="#657689" fill-rule="evenodd"/><path d="M1129 1166 1156 1166 1156 1182 1129 1182Z" fill="#E6E6E6" fill-rule="evenodd"/><path d="M1159 1166 1186 1166 1186 1182 1159 1182Z" fill="#E6E6E6" fill-rule="evenodd"/><path d="M1094 1227 1156 1227 1156 1243 1094 1243Z" fill="#E6E6E6" fill-rule="evenodd"/><path d="M1159 1227 1186 1227 1186 1243 1159 1243Z" fill="#E6E6E6" fill-rule="evenodd"/><path d="M1129 1196 1156 1196 1156 1213 1129 1213Z" fill="#E6E6E6" fill-rule="evenodd"/><path d="M1159 1196 1186 1196 1186 1213 1159 1213Z" fill="#E6E6E6" fill-rule="evenodd"/><path d="M1189 1196 1216 1196 1216 1213 1189 1213Z" fill="#E6E6E6" fill-rule="evenodd"/><path d="M1159 1258 1185 1258 1185 1274 1159 1274Z" fill="#E6E6E6" fill-rule="evenodd"/><path d="M1129 1319 1156 1319 1156 1335 1129 1335Z" fill="#E6E6E6" fill-rule="evenodd"/><path d="M1094 1288 1156 1288 1156 1305 1094 1305Z" fill="#E6E6E6" fill-rule="evenodd"/><path d="M1159 1288 1185 1288 1185 1305 1159 1305Z" fill="#E6E6E6" fill-rule="evenodd"/><path d="M1190 1288 1216 1288 1216 1305 1190 1305Z" fill="#E6E6E6" fill-rule="evenodd"/><path d="M1159 1319 1186 1319 1186 1366 1159 1366Z" fill="#E6E6E6" fill-rule="evenodd"/><path d="M905.5 1135 905.5 1182.02 793.167 1182.02 793.167 1243.35 737 1243.51 737 1365.93 1074 1366 1074 1135Z" fill="#E6E6E6" fill-rule="evenodd"/><path d="M832 1274 858 1274 858 1305 832 1305Z" fill="#737373" fill-rule="evenodd"/><path d="M832 1305 858 1305 858 1335 832 1335Z" fill="#D2D2D2" fill-rule="evenodd"/><path d="M793 1274 820 1274 820 1305 793 1305Z" fill="#737373" fill-rule="evenodd"/><path d="M793 1305 820 1305 820 1335 793 1335Z" fill="#D2D2D2" fill-rule="evenodd"/><path d="M1010 1305 1036 1305 1036 1336 1010 1336Z" fill="#737373" fill-rule="evenodd"/><path d="M1010 1336 1036 1336 1036 1366 1010 1366Z" fill="#D2D2D2" fill-rule="evenodd"/><path d="M972 1305 998 1305 998 1336 972 1336Z" fill="#737373" fill-rule="evenodd"/><path d="M972 1336 998 1336 998 1366 972 1366Z" fill="#D2D2D2" fill-rule="evenodd"/><path d="M905 1305 961 1305 961 1336 905 1336Z" fill="#737373" fill-rule="evenodd"/><path d="M905 1336 961 1336 961 1366 905 1366Z" fill="#D2D2D2" fill-rule="evenodd"/><path d="M905 1243 1036 1243 1036 1274 905 1274Z" fill="#D2D2D2" fill-rule="evenodd"/><path d="M905 1182 1036 1182 1036 1213 905 1213Z" fill="#D2D2D2" fill-rule="evenodd"/><path d="M849 1233 980 1233 980 1243 849 1243Z" fill="#737373" fill-rule="evenodd"/><path d="M849 1172 980 1172 980 1182 849 1182Z" fill="#737373" fill-rule="evenodd"/><path d="M1929 1303 2042 1303 2042 1335 1929 1335Z" fill="#737373" fill-rule="evenodd"/><path d="M2084 1121 1916 1121 1916 1366 1931.28 1366 1931.28 1304.75 2013.07 1304.75 2013.07 1366 2028.35 1366 2028.35 1304.75 2040.72 1304.75 2040.72 1366 2056 1366 2056 1304.75 2083.76 1304.75Z" fill="#E6E6E6" fill-rule="evenodd"/><path d="M1916 1135 2000 1135 2000 1166 1916 1166Z" fill="#D2D2D2" fill-rule="evenodd"/><path d="M1916 1196 2000 1196 2000 1227 1916 1227Z" fill="#D2D2D2" fill-rule="evenodd"/><path d="M1916 1258 2000 1258 2000 1288 1916 1288Z" fill="#D2D2D2" fill-rule="evenodd"/><path d="M1953 1227 2056 1227 2056 1243 1953 1243Z" fill="#737373" fill-rule="evenodd"/><path d="M1953 1166 2056 1166 2056 1182 1953 1182Z" fill="#737373" fill-rule="evenodd"/><path d="M2533 1366 2421 1366 2421 998 2533 998Z" fill="#FFFFFF" fill-rule="evenodd"/><path d="M2460 1060 2533 1060 2533 1063 2460 1063Z" fill="#D2D2D2" fill-rule="evenodd"/><path d="M2460 1072 2533 1072 2533 1075 2460 1075Z" fill="#D2D2D2" fill-rule="evenodd"/><path d="M2460 1084 2533 1084 2533 1087 2460 1087Z" fill="#D2D2D2" fill-rule="evenodd"/><path d="M2460 1096 2516 1096 2516 1099 2460 1099Z" fill="#D2D2D2" fill-rule="evenodd"/><path d="M2460 1109 2516 1109 2516 1112 2460 1112Z" fill="#D2D2D2" fill-rule="evenodd"/><path d="M2460 1121 2516 1121 2516 1124 2460 1124Z" fill="#D2D2D2" fill-rule="evenodd"/><path d="M2460 1133 2516 1133 2516 1136 2460 1136Z" fill="#D2D2D2" fill-rule="evenodd"/><path d="M2252 1366 2084 1366 2084 998 2252 998Z" fill="#D2D2D2" fill-rule="evenodd"/><path d="M2168 1029 2230 1029 2230 1090 2168 1090Z" fill="#E6E6E6" fill-rule="evenodd"/><path d="M2138 1029 2165 1029 2165 1090 2138 1090Z" fill="#E6E6E6" fill-rule="evenodd"/><path d="M2108 1029 2135 1029 2135 1090 2108 1090Z" fill="#E6E6E6" fill-rule="evenodd"/><path d="M2168 1104 2230 1104 2230 1121 2168 1121Z" fill="#E6E6E6" fill-rule="evenodd"/><path d="M2138 1104 2165 1104 2165 1121 2138 1121Z" fill="#E6E6E6" fill-rule="evenodd"/><path d="M2108 1104 2134 1104 2134 1121 2108 1121Z" fill="#E6E6E6" fill-rule="evenodd"/><path d="M2168 1135 2230 1135 2230 1151 2168 1151Z" fill="#FFFFFF" fill-rule="evenodd"/><path d="M2139 1135 2165 1135 2165 1151 2139 1151Z" fill="#FFFFFF" fill-rule="evenodd"/><path d="M2108 1135 2134 1135 2134 1151 2108 1151Z" fill="#FFFFFF" fill-rule="evenodd"/><path d="M2168 1166 2195 1166 2195 1182 2168 1182Z" fill="#E6E6E6" fill-rule="evenodd"/><path d="M2138 1166 2165 1166 2165 1182 2138 1182Z" fill="#E6E6E6" fill-rule="evenodd"/><path d="M2168 1227 2230 1227 2230 1243 2168 1243Z" fill="#E6E6E6" fill-rule="evenodd"/><path d="M2138 1227 2165 1227 2165 1243 2138 1243Z" fill="#E6E6E6" fill-rule="evenodd"/><path d="M2168 1196 2194 1196 2194 1213 2168 1213Z" fill="#E6E6E6" fill-rule="evenodd"/><path d="M2138 1196 2165 1196 2165 1213 2138 1213Z" fill="#E6E6E6" fill-rule="evenodd"/><path d="M2108 1196 2135 1196 2135 1213 2108 1213Z" fill="#E6E6E6" fill-rule="evenodd"/><path d="M2139 1258 2165 1258 2165 1274 2139 1274Z" fill="#E6E6E6" fill-rule="evenodd"/><path d="M2168 1319 2195 1319 2195 1335 2168 1335Z" fill="#E6E6E6" fill-rule="evenodd"/><path d="M2168 1288 2230 1288 2230 1305 2168 1305Z" fill="#E6E6E6" fill-rule="evenodd"/><path d="M2139 1288 2165 1288 2165 1305 2139 1305Z" fill="#E6E6E6" fill-rule="evenodd"/><path d="M2108 1288 2134 1288 2134 1305 2108 1305Z" fill="#E6E6E6" fill-rule="evenodd"/><path d="M2138 1319 2165 1319 2165 1366 2138 1366Z" fill="#E6E6E6" fill-rule="evenodd"/><path d="M2420.98 1029 2420.98 1181.88 2533 1181.88 2533 1366 2252 1366 2252 1029Z" fill="#E6E6E6" fill-rule="evenodd"/><path d="M2290 1104 2316 1104 2316 1135 2290 1135Z" fill="#D2D2D2" fill-rule="evenodd"/><path d="M2327 1104 2353 1104 2353 1135 2327 1135Z" fill="#D2D2D2" fill-rule="evenodd"/><path d="M2365 1104 2421 1104 2421 1135 2365 1135Z" fill="#D2D2D2" fill-rule="evenodd"/><path d="M2451 1274 2477 1274 2477 1305 2451 1305Z" fill="#737373" fill-rule="evenodd"/><path d="M2451 1305 2477 1305 2477 1335 2451 1335Z" fill="#D2D2D2" fill-rule="evenodd"/><path d="M2489 1274 2516 1274 2516 1305 2489 1305Z" fill="#737373" fill-rule="evenodd"/><path d="M2489 1305 2516 1305 2516 1335 2489 1335Z" fill="#D2D2D2" fill-rule="evenodd"/><path d="M2290 1305 2316 1305 2316 1336 2290 1336Z" fill="#737373" fill-rule="evenodd"/><path d="M2290 1336 2316 1336 2316 1366 2290 1366Z" fill="#D2D2D2" fill-rule="evenodd"/><path d="M2327 1305 2353 1305 2353 1336 2327 1336Z" fill="#737373" fill-rule="evenodd"/><path d="M2327 1336 2353 1336 2353 1366 2327 1366Z" fill="#D2D2D2" fill-rule="evenodd"/><path d="M2365 1305 2421 1305 2421 1336 2365 1336Z" fill="#737373" fill-rule="evenodd"/><path d="M2365 1336 2421 1336 2421 1366 2365 1366Z" fill="#D2D2D2" fill-rule="evenodd"/><path d="M2421 1274 2290 1274 2290 1243 2421 1243Z" fill="#D2D2D2" fill-rule="evenodd"/><path d="M2421 1213 2290 1213 2290 1182 2421 1182Z" fill="#D2D2D2" fill-rule="evenodd"/><path d="M2477 1243 2346 1243 2346 1233 2477 1233Z" fill="#737373" fill-rule="evenodd"/><path d="M2477 1182 2346 1182 2346 1172 2477 1172Z" fill="#737373" fill-rule="evenodd"/></g></svg>