<?xml version="1.0" encoding="iso-8859-1"?>
<!-- Generator: Adobe Illustrator 19.0.0, SVG Export Plug-In . SVG Version: 6.00 Build 0)  -->
<svg version="1.1" id="Layer_1" xmlns="http://www.w3.org/2000/svg" xmlns:xlink="http://www.w3.org/1999/xlink" x="0px" y="0px"
	 viewBox="0 0 512 512" style="enable-background:new 0 0 512 512;" xml:space="preserve">
<path style="fill:#E09B2D;" d="M408.258,258.795l-28.935,61.746h23.02l-53.827,91.043l4.635-76.388h-32.436l24.071-75.35v-1.05
	C368.337,258.795,390.09,258.795,408.258,258.795z"/>
<path style="fill:#F7B239;" d="M228.393,260.4l36.903,115.524h-49.747l38.52,117.142L140.138,353.471h35.297l-73.805-94.677
	c26.666,0,74.505,0,126.763,0L228.393,260.4L228.393,260.4z"/>
<path style="fill:#666666;" d="M463.907,165.096C490.754,166.822,512,189.13,512,216.412c0,28.416-23.032,51.437-51.437,51.437
	c-3.537,0-23.382,0-52.306,0c-18.168,0-39.92,0-63.472,0c-36.697,0-77.752,0-116.393,0c-52.257,0-100.097,0-126.763,0
	c-10.997,0-18.397,0-21.016,0C36.082,267.848,0,231.767,0,187.235c0-44.52,36.082-80.601,80.613-80.601
	c2.463,0,4.901,0.121,7.303,0.338c15.584-50.966,62.977-88.037,119.037-88.037c45.28,0,84.899,24.179,106.676,60.321
	c14.631-8.269,31.519-13.013,49.529-13.013C418.168,66.242,462.869,110.327,463.907,165.096z"/>
<g>
	<path style="fill:#4D4D4D;" d="M50.7,206.549c0-44.52,36.082-80.601,80.613-80.601c2.463,0,4.901,0.121,7.303,0.338
		c15.584-50.966,62.977-88.037,119.037-88.037c6.082,0,12.056,0.45,17.903,1.293c-19.667-13.02-43.246-20.607-68.603-20.607
		c-56.06,0-103.453,37.072-119.037,88.037c-2.402-0.217-4.841-0.338-7.303-0.338C36.082,106.634,0,142.715,0,187.235
		c0,43.968,35.18,79.673,78.933,80.571C61.66,253.022,50.7,231.075,50.7,206.549z"/>
	<path style="fill:#4D4D4D;" d="M173.367,239.445c-3.248,0-6.389-1.753-8.013-4.825c-5.733-10.846-8.763-23.104-8.763-35.448
		c0-41.934,34.11-76.05,76.037-76.05c20.522,0,39.817,8.14,54.06,22.575c6.842-3.509,14.406-5.337,22.257-5.337
		c26.958,0,48.889,21.927,48.889,48.877c0,0.396-0.007,0.791-0.033,1.187c-0.336,4.988-4.64,8.759-9.64,8.426
		c-4.947-0.332-8.697-4.578-8.433-9.514v-0.1c0-16.966-13.809-30.77-30.782-30.77c-6.74,0-13.14,2.134-18.508,6.173
		c-3.915,2.944-9.46,2.243-12.516-1.584c-11.083-13.871-27.591-21.826-45.293-21.826c-31.942,0-57.93,25.994-57.93,57.943
		c0,9.406,2.304,18.737,6.665,26.987c2.337,4.421,0.647,9.899-3.774,12.234C176.24,239.107,174.794,239.445,173.367,239.445z"/>
</g>
<g>
</g>
<g>
</g>
<g>
</g>
<g>
</g>
<g>
</g>
<g>
</g>
<g>
</g>
<g>
</g>
<g>
</g>
<g>
</g>
<g>
</g>
<g>
</g>
<g>
</g>
<g>
</g>
<g>
</g>
</svg>
